# xmcd CD database file
#
# Track frame offsets:
#	150
#	14377
#	30472
#	41950
#	55805
#	78015
#	96395
#	108157
#	122987
#	138212
#	152460
#	187587
#	204250
#	223772
#	243235
#
# Disc length: 3575 seconds
#
# Revision: 2
# Processed by: cddbd v1.5.2PL0 Copyright (c) Steve Scherf et al.
# Submitted via: CDex 1.51
#
DISCID=ba0df50f
DTITLE=Butch Hancock Jimmie Dale Gilmore - Two Roads
DYEAR=1990
DGENRE=Country
TTITLE0=Hello Stranger
TTITLE1=Ramblin Man
TTITLE2=Her Lover Of The Hour
TTITLE3=Tonight I Think I'm Gonna Go Downtown
TTITLE4=Two Roads
TTITLE5=Wheels Of Fortune
TTITLE6=One Road More
TTITLE7=Blue Yodel #9
TTITLE8=Down By The Banks Of The Guadalupe
TTITLE9=Dallas
TTITLE10=Already Gone
TTITLE11=Special Treatment
TTITLE12=Howlin At Midnight
TTITLE13=Firewater (Seeks Its Own Level)
TTITLE14=West Texas Waltz
EXTD=YEAR: 1990
EXTT0=
EXTT1=
EXTT2=
EXTT3=
EXTT4=
EXTT5=
EXTT6=
EXTT7=
EXTT8=
EXTT9=
EXTT10=
EXTT11=
EXTT12=
EXTT13=
EXTT14=
PLAYORDER=
